<svg width="25" height="25" viewBox="0 0 25 25" fill="none" xmlns="http://www.w3.org/2000/svg">
<path d="M12.5 0C5.59685 0 0 5.59685 0 12.5C0 19.4039 5.59685 25 12.5 25C19.4031 25 25 19.4039 25 12.5C24.9999 5.59685 19.4031 0 12.5 0ZM16.0015 22.0226C15.9296 21.0445 15.8492 19.8327 15.8444 19.3421C15.8132 18.9656 15.7725 18.0078 14.8632 17.3961C18.4733 17.0937 20.1913 15.0984 20.3148 12.4617C20.4179 10.9602 19.821 9.63983 18.7609 8.57425C18.8148 7.43444 18.7265 6.0836 18.6531 5.48992C17.8391 5.25556 15.9406 6.25789 15.4101 6.6868C14.2913 6.2524 11.5531 6.10008 9.88904 6.6868C8.70932 5.85713 7.36638 5.34464 6.63437 5.48761C5.95857 6.98527 6.39297 8.4009 6.52495 8.56961C5.65461 9.36496 4.44056 10.3439 4.77027 12.3946C5.29916 15.4016 7.41478 17.0235 10.821 17.4204C10.0945 17.5688 9.97177 18.111 9.91084 18.3461C7.62332 19.2899 6.96948 17.7634 6.68037 17.3657C5.72026 16.1774 4.85849 16.522 4.80537 16.5407C4.75379 16.5594 4.71475 16.6344 4.72024 16.6703C4.76864 16.9266 5.29135 17.1868 5.31709 17.2078C6.02568 17.7359 6.28819 18.6898 6.44987 18.9617C7.46627 20.6328 9.8288 19.9398 9.85145 19.9539C9.853 20.1 9.83506 21.3297 9.82099 22.2867C5.51327 21.1101 2.34373 17.1804 2.34373 12.5C2.34373 6.89062 6.89062 2.34381 12.4999 2.34381C18.1092 2.34381 22.6562 6.89062 22.6562 12.5C22.6562 16.8773 19.8828 20.5952 16.0015 22.0226Z" fill="white"/>
</svg>
