<svg width="30" height="33" viewBox="0 0 30 33" fill="none" xmlns="http://www.w3.org/2000/svg">
<path d="M27.8076 28.43V0L3.19681 0V28.43H27.8076Z" fill="white"/>
<path d="M20.344 28.43V14.5977L3.19483 14.5977V28.43H20.344Z" fill="#BFD0E2"/>
<path d="M27.8077 28.43C29.0185 28.43 30 22.0657 30 14.215C30 6.36428 29.0185 0 27.8077 0C26.597 0 25.6155 6.36428 25.6155 14.215C25.6155 22.0657 26.597 28.43 27.8077 28.43Z" fill="white"/>
<path d="M3.19484 28.43C4.95931 28.43 6.38969 22.0657 6.38969 14.215C6.38969 6.36428 4.95931 0 3.19484 0C1.43038 0 0 6.36428 0 14.215C0 22.0657 1.43038 28.43 3.19484 28.43Z" fill="#BFD0E2"/>
<path d="M3.19489 19.5459C3.85657 19.5459 4.39296 17.1592 4.39296 14.215C4.39296 11.2708 3.85657 8.88409 3.19489 8.88409C2.53322 8.88409 1.99683 11.2708 1.99683 14.215C1.99683 17.1592 2.53322 19.5459 3.19489 19.5459Z" fill="#3B85FF"/>
<path d="M30 14.5977H6.38965V33H30V14.5977Z" fill="white"/>
<path d="M17.3469 16.2376H11.4827V18.8025H17.3469V16.2376Z" fill="#3B85FF"/>
<path d="M24.9072 16.2376H19.043V18.8025H24.9072V16.2376Z" fill="#3B85FF"/>
<path d="M17.3469 20.6873H11.4827V23.2522H17.3469V20.6873Z" fill="#3B85FF"/>
<path d="M24.9072 20.6873H19.043V23.2522H24.9072V20.6873Z" fill="#3B85FF"/>
<path d="M17.3469 25.1371H11.4827V27.702H17.3469V25.1371Z" fill="#3B85FF"/>
<path d="M24.9072 25.1371H19.043V27.702H24.9072V25.1371Z" fill="#3B85FF"/>
<path d="M26.6033 14.473V29.4665H9.78831V14.473H26.6033ZM28.3121 12.6953H8.07739V31.2442H28.3121V12.6953Z" fill="#3B85FF"/>
</svg>
